<?xml version="1.0" standalone="no"?>
<!DOCTYPE svg PUBLIC "-//W3C//DTD SVG 20010904//EN"
 "http://www.w3.org/TR/2001/REC-SVG-20010904/DTD/svg10.dtd">
<svg version="1.0" xmlns="http://www.w3.org/2000/svg"
 width="180.000000pt" height="180.000000pt" viewBox="0 0 180.000000 180.000000"
 preserveAspectRatio="xMidYMid meet">
<metadata>
Created by potrace 1.14, written by Peter Selinger 2001-2017
</metadata>
<g transform="translate(0.000000,180.000000) scale(0.100000,-0.100000)"
fill="#000000" stroke="none">
<path d="M740 1492 c-85 -48 -162 -91 -170 -97 -8 -5 -17 -10 -20 -10 -5 -1
-43 -22 -180 -102 l-75 -44 1 -328 c1 -317 2 -329 22 -349 11 -11 22 -18 25
-16 2 2 21 -7 41 -21 20 -14 43 -25 51 -25 7 0 15 -3 17 -8 4 -10 165 -102
178 -102 5 0 10 -5 10 -12 0 -6 3 -8 7 -5 3 4 13 1 22 -7 9 -7 41 -27 71 -43
30 -17 77 -42 103 -57 46 -26 50 -26 73 -11 13 8 24 13 24 11 0 -5 108 57 126
72 6 5 21 13 35 17 13 4 26 11 29 15 4 6 72 44 170 96 19 11 39 25 43 32 4 6
16 12 26 12 10 0 28 9 41 20 13 11 29 20 35 20 24 0 38 32 41 91 2 45 0 61
-11 66 -16 5 -13 51 3 62 10 8 10 462 -1 479 -5 7 -13 10 -18 7 -5 -4 -9 -1
-9 4 0 6 -7 11 -15 11 -8 0 -15 4 -15 8 0 4 -15 15 -32 23 -41 20 -101 52
-108 59 -3 3 -27 16 -55 30 -27 14 -53 30 -57 35 -5 7 -8 7 -8 0 0 -5 -5 -2
-11 8 -5 9 -19 17 -29 17 -11 0 -20 4 -20 9 0 5 -8 11 -17 14 -17 6 -94 48
-158 87 l-31 19 -154 -87z"/>
</g>
</svg>
