<svg id="Layer_1" data-name="Layer 1" xmlns="http://www.w3.org/2000/svg" viewBox="0 0 512 512"><defs><style>.cls-1{fill:#d9e4e8;}.cls-2{fill:#ffb24d;}.cls-3{fill:#141f38;}</style></defs><title>box-filled</title><path class="cls-1" d="M221.37,19,33.58,88.17a32,32,0,0,0-21,30V393.78a32,32,0,0,0,21,30L221.37,493a100.16,100.16,0,0,0,69.25,0l187.79-69.19a32,32,0,0,0,21-30V118.22a32,32,0,0,0-21-30L290.63,19A100.16,100.16,0,0,0,221.37,19Z"/><path class="cls-2" d="M93,66.27l241.14,88.84a17.57,17.57,0,0,1,11.5,16.49V472.74l64-23.59V145.79A26.4,26.4,0,0,0,392.44,121l-224-82.53Z"/><path class="cls-3" d="M482.85,76.15,295.05,7a113,113,0,0,0-78.11,0L168.43,24.84h0L56,66.27h0L29.16,76.15A45,45,0,0,0-.18,118.21V393.79a45,45,0,0,0,29.33,42.07L216.95,505a113,113,0,0,0,78.11,0l65.44-24.11,62-22.85h0l60.32-22.22a45,45,0,0,0,29.34-42.07V118.21A45,45,0,0,0,482.85,76.15ZM225.8,31a87.35,87.35,0,0,1,60.39,0L471,99.09l-57.87,21.32A39.11,39.11,0,0,0,396.86,109L205.48,38.49ZM358.47,454.37V171.6a30.49,30.49,0,0,0-19.88-28.51L130.08,66.27l30-11,8.35-3.08L388,133a13.65,13.65,0,0,1,8.89,12.75V440.21ZM308,159.13,256,178.3,41,99.09,93,79.92ZM38,411.81a19.28,19.28,0,0,1-12.57-18V120.66l217.75,80.23V485.42A87.18,87.18,0,0,1,225.8,481ZM286.2,481a87.18,87.18,0,0,1-17.39,4.42V200.89l64-23.59V463.81ZM474,411.81l-51.47,19v-285q0-.76,0-1.52l64.08-23.61V393.79A19.28,19.28,0,0,1,474,411.81ZM191.17,302.23a12.79,12.79,0,0,1-16.45,7.59l-89.66-33a12.81,12.81,0,0,1,8.86-24l89.66,33A12.81,12.81,0,0,1,191.17,302.23Zm-12.81,50.56a12.79,12.79,0,0,1-16.45,7.59l-64-23.6a12.81,12.81,0,1,1,8.86-24l64,23.6A12.81,12.81,0,0,1,178.36,352.79Z"/></svg>